<svg xmlns="http://www.w3.org/2000/svg" width="42" height="42" viewBox="0 0 42 42"><defs><linearGradient id="ib1vc" x1="21" x2="21" y1="40" y2="2" gradientUnits="userSpaceOnUse"><stop offset="0" stop-opacity=".5"/><stop offset="1" stop-color="#fff" stop-opacity=".5"/></linearGradient><filter id="ib1va" width="200%" height="200%" x="-50%" y="-50%"><feGaussianBlur in="SourceGraphic" result="FeGaussianBlur1279Out" stdDeviation="1 1"/></filter><mask id="ib1vb"><path fill="#fff" d="M21 2c10.493 0 19 8.507 19 19s-8.507 19-19 19S2 31.493 2 21 10.507 2 21 2z"/></mask><filter id="ib1vd" width="200%" height="200%" x="-50%" y="-50%"><feGaussianBlur in="SourceGraphic" result="FeGaussianBlur1286Out" stdDeviation="0 0"/></filter><mask id="ib1ve"><path fill="#fff" d="M21 2c10.493 0 19 8.507 19 19s-8.507 19-19 19S2 31.493 2 21 10.507 2 21 2z"/></mask><clipPath id="ib1vf"><path fill="#fff" d="M21 2c10.493 0 19 8.507 19 19s-8.507 19-19 19S2 31.493 2 21 10.507 2 21 2z"/></clipPath><mask id="ib1vh" width="2" height="2" x="-1" y="-1"><path fill="#fff" d="M13 11h12v20H13z"/><path d="M13.73 19.032l6.992-7.267c2.252-2.34 5.762 1.262 3.512 3.6l-5.293 5.498 5.34 5.75c2.207 2.377-1.3 5.982-3.512 3.6l-7.04-7.582c-.938-1.01-.968-2.594 0-3.6z"/></mask><filter id="ib1vg" width="32" height="41" x="3" y="1" filterUnits="userSpaceOnUse"><feOffset dy="1" in="SourceGraphic" result="FeOffset1304Out"/><feGaussianBlur in="FeOffset1304Out" result="FeGaussianBlur1305Out" stdDeviation="0 0"/></filter><filter id="ib1vi" width="200%" height="200%" x="-50%" y="-50%"><feGaussianBlur in="SourceGraphic" result="FeGaussianBlur1310Out" stdDeviation="1 1"/></filter><mask id="ib1vj"><path fill="#fff" d="M13.73 19.032l6.992-7.267c2.252-2.34 5.762 1.262 3.512 3.6l-5.293 5.498 5.34 5.75c2.207 2.377-1.3 5.982-3.512 3.6l-7.04-7.582c-.938-1.01-.968-2.594 0-3.6z"/></mask></defs><g><g><path fill="#fff" fill-opacity=".26" d="M0 42V0h42v42zm2-21c0 10.493 8.507 19 19 19s19-8.507 19-19S31.493 2 21 2 2 10.507 2 21z" filter="url(#ib1va)" mask="url(&quot;#ib1vb&quot;)"/><path fill="#eff1f3" d="M21 2c10.493 0 19 8.507 19 19s-8.507 19-19 19S2 31.493 2 21 10.507 2 21 2z"/><path fill="url(#ib1vc)" d="M21 2c10.493 0 19 8.507 19 19s-8.507 19-19 19S2 31.493 2 21 10.507 2 21 2z"/><path fill="#fff" fill-opacity=".26" d="M0 42V0h42v42zm2-21c0 10.493 8.507 19 19 19s19-8.507 19-19S31.493 2 21 2 2 10.507 2 21z" filter="url(#ib1va)" mask="url(&quot;#ib1vb&quot;)"/><path fill="#fff" fill-opacity=".75" d="M2 42V0h38v42zm0-19c0 10.493 8.507 19 19 19s19-8.507 19-19S31.493 4 21 4 2 12.507 2 23z" filter="url(#ib1vd)" mask="url(&quot;#ib1ve&quot;)"/><path fill="#eff1f3" stroke="#c9ced2" stroke-linecap="round" stroke-linejoin="round" stroke-miterlimit="20" stroke-width="2" d="M21 2c10.493 0 19 8.507 19 19s-8.507 19-19 19S2 31.493 2 21 10.507 2 21 2z" clip-path="url(&quot;#ib1vf&quot;)"/></g><g><g filter="url(#ib1vg)"><path fill="none" d="M13.73 19.032l6.992-7.267c2.252-2.34 5.762 1.262 3.512 3.6l-5.293 5.498 5.34 5.75c2.207 2.377-1.3 5.982-3.512 3.6l-7.04-7.582c-.938-1.01-.968-2.594 0-3.6z" mask="url(&quot;#ib1vh&quot;)"/><path fill="#fff" d="M13.73 19.032l6.992-7.267c2.252-2.34 5.762 1.262 3.512 3.6l-5.293 5.498 5.34 5.75c2.207 2.377-1.3 5.982-3.512 3.6l-7.04-7.582c-.938-1.01-.968-2.594 0-3.6z"/></g><path fill="#4c4f51" d="M13.73 19.032l6.992-7.267c2.252-2.34 5.762 1.262 3.512 3.6l-5.293 5.498 5.34 5.75c2.207 2.377-1.3 5.982-3.512 3.6l-7.04-7.582c-.938-1.01-.968-2.594 0-3.6z"/><path fill-opacity=".51" d="M11 34V8h16v26zm2.73-13.968c-.969 1.005-.94 2.59 0 3.599l7.04 7.582c2.211 2.382 5.718-1.223 3.511-3.6a25415.5 25415.5 0 0 0-5.34-5.75c1.765-1.832 3.53-3.665 5.293-5.498 2.25-2.338-1.26-5.94-3.512-3.6l-6.992 7.267z" filter="url(#ib1vi)" mask="url(&quot;#ib1vj&quot;)"/></g></g></svg>