<svg xmlns="http://www.w3.org/2000/svg" width="42" height="42" viewBox="0 0 42 42"><defs><linearGradient id="6x9cc" x1="21" x2="21" y1="40" y2="2" gradientUnits="userSpaceOnUse"><stop offset="0" stop-opacity=".5"/><stop offset="1" stop-color="#fff" stop-opacity=".5"/></linearGradient><filter id="6x9ca" width="200%" height="200%" x="-50%" y="-50%"><feGaussianBlur in="SourceGraphic" result="FeGaussianBlur1340Out" stdDeviation="1 1"/></filter><mask id="6x9cb"><path fill="#fff" d="M21 2C10.507 2 2 10.507 2 21s8.507 19 19 19 19-8.507 19-19S31.493 2 21 2z"/></mask><filter id="6x9cd" width="200%" height="200%" x="-50%" y="-50%"><feGaussianBlur in="SourceGraphic" result="FeGaussianBlur1347Out" stdDeviation="0 0"/></filter><mask id="6x9ce"><path fill="#fff" d="M21 2C10.507 2 2 10.507 2 21s8.507 19 19 19 19-8.507 19-19S31.493 2 21 2z"/></mask><clipPath id="6x9cf"><path fill="#fff" d="M21 2C10.507 2 2 10.507 2 21s8.507 19 19 19 19-8.507 19-19S31.493 2 21 2z"/></clipPath><mask id="6x9ch" width="2" height="2" x="-1" y="-1"><path fill="#fff" d="M17 11h12v20H17z"/><path d="M28.27 19.032l-6.992-7.267c-2.252-2.34-5.762 1.262-3.512 3.6l5.293 5.498-5.34 5.75c-2.207 2.377 1.3 5.982 3.512 3.6l7.04-7.582c.938-1.01.968-2.594 0-3.6z"/></mask><filter id="6x9cg" width="32" height="41" x="7" y="1" filterUnits="userSpaceOnUse"><feOffset dy="1" in="SourceGraphic" result="FeOffset1365Out"/><feGaussianBlur in="FeOffset1365Out" result="FeGaussianBlur1366Out" stdDeviation="0 0"/></filter><filter id="6x9ci" width="200%" height="200%" x="-50%" y="-50%"><feGaussianBlur in="SourceGraphic" result="FeGaussianBlur1371Out" stdDeviation="1 1"/></filter><mask id="6x9cj"><path fill="#fff" d="M28.27 19.032l-6.992-7.267c-2.252-2.34-5.762 1.262-3.512 3.6l5.293 5.498-5.34 5.75c-2.207 2.377 1.3 5.982 3.512 3.6l7.04-7.582c.938-1.01.968-2.594 0-3.6z"/></mask></defs><g><g><path fill="#fff" fill-opacity=".26" d="M0 42V0h42v42zM21 2C10.507 2 2 10.507 2 21s8.507 19 19 19 19-8.507 19-19S31.493 2 21 2z" filter="url(#6x9ca)" mask="url(&quot;#6x9cb&quot;)"/><path fill="#e3e7ea" d="M21 2C10.507 2 2 10.507 2 21s8.507 19 19 19 19-8.507 19-19S31.493 2 21 2z"/><path fill="url(#6x9cc)" d="M21 2C10.507 2 2 10.507 2 21s8.507 19 19 19 19-8.507 19-19S31.493 2 21 2z"/><path fill="#fff" fill-opacity=".26" d="M0 42V0h42v42zM21 2C10.507 2 2 10.507 2 21s8.507 19 19 19 19-8.507 19-19S31.493 2 21 2z" filter="url(#6x9ca)" mask="url(&quot;#6x9cb&quot;)"/><path fill="#fff" fill-opacity=".75" d="M2 42V0h38v22.96C39.979 12.486 31.48 4 21 4 10.507 4 2 12.507 2 23s8.507 19 19 19c10.48 0 18.979-8.485 19-18.96V42zm38-19v-.04.04z" filter="url(#6x9cd)" mask="url(&quot;#6x9ce&quot;)"/><path fill="#eff1f3" stroke="#c9ced2" stroke-linecap="round" stroke-linejoin="round" stroke-miterlimit="20" stroke-width="2" d="M21 2C10.507 2 2 10.507 2 21s8.507 19 19 19 19-8.507 19-19S31.493 2 21 2z" clip-path="url(&quot;#6x9cf&quot;)"/></g><g><g filter="url(#6x9cg)"><path fill="none" d="M28.27 19.032l-6.992-7.267c-2.252-2.34-5.762 1.262-3.512 3.6l5.293 5.498-5.34 5.75c-2.207 2.377 1.3 5.982 3.512 3.6l7.04-7.582c.938-1.01.968-2.594 0-3.6z" mask="url(&quot;#6x9ch&quot;)"/><path fill="#fff" d="M28.27 19.032l-6.992-7.267c-2.252-2.34-5.762 1.262-3.512 3.6l5.293 5.498-5.34 5.75c-2.207 2.377 1.3 5.982 3.512 3.6l7.04-7.582c.938-1.01.968-2.594 0-3.6z"/></g><path fill="#4c4f51" d="M28.27 19.032l-6.992-7.267c-2.252-2.34-5.762 1.262-3.512 3.6l5.293 5.498-5.34 5.75c-2.207 2.377 1.3 5.982 3.512 3.6l7.04-7.582c.938-1.01.968-2.594 0-3.6z"/><path fill-opacity=".51" d="M15 34V8h16v26zm13.27-13.968l-6.992-7.267c-2.252-2.34-5.762 1.262-3.512 3.6l5.293 5.498-5.34 5.75c-2.207 2.377 1.3 5.982 3.512 3.6l7.04-7.582c.938-1.01.968-2.594 0-3.6z" filter="url(#6x9ci)" mask="url(&quot;#6x9cj&quot;)"/></g></g></svg>