<svg xmlns="http://www.w3.org/2000/svg" width="144" height="144" viewBox="0 0 144 144"><defs><clipPath id="9pqba"><path fill="#fff" d="M72 5c37.003 0 67 29.997 67 67s-29.997 67-67 67S5 109.003 5 72 34.997 5 72 5z"/></clipPath></defs><g><g><g><path fill="none" d="M72 5c37.003 0 67 29.997 67 67s-29.997 67-67 67S5 109.003 5 72 34.997 5 72 5z"/><path fill="none" stroke="#8395a2" stroke-linecap="round" stroke-linejoin="round" stroke-miterlimit="20" stroke-width="10" d="M72 5c37.003 0 67 29.997 67 67s-29.997 67-67 67S5 109.003 5 72 34.997 5 72 5z" clip-path="url(&quot;#9pqba&quot;)"/></g><g><path fill="#7d8f9b" d="M86.111 103H58.89A3.882 3.882 0 0 1 55 99.123v-54.25A3.882 3.882 0 0 1 58.889 41H86.11A3.882 3.882 0 0 1 90 44.875v54.25a3.882 3.882 0 0 1-3.889 3.874zM72.5 99.123a1.94 1.94 0 0 0 1.944-1.937c0-1.07-.87-1.938-1.944-1.938a1.941 1.941 0 0 0-1.944 1.938c0 1.07.87 1.937 1.944 1.937zm3.889-54.25H68.61a1.94 1.94 0 0 0-1.944 1.938c0 1.07.87 1.937 1.944 1.937h7.778a1.941 1.941 0 0 0 1.944-1.937 1.94 1.94 0 0 0-1.944-1.937zm9.722 7.75H58.89v38.75H86.11z"/></g></g></g></svg>