<svg xmlns="http://www.w3.org/2000/svg" width="144" height="144" viewBox="0 0 144 144"><defs><clipPath id="5pzza"><path fill="#fff" d="M72 5c37.003 0 67 29.997 67 67s-29.997 67-67 67S5 109.003 5 72 34.997 5 72 5z"/></clipPath></defs><g><g><path fill="none" d="M72 5c37.003 0 67 29.997 67 67s-29.997 67-67 67S5 109.003 5 72 34.997 5 72 5z"/><path fill="none" stroke="#8395a2" stroke-linecap="round" stroke-linejoin="round" stroke-miterlimit="20" stroke-width="10" d="M72 5c37.003 0 67 29.997 67 67s-29.997 67-67 67S5 109.003 5 72 34.997 5 72 5z" clip-path="url(&quot;#5pzza&quot;)"/></g><g><path fill="#7d8f9b" d="M79 59.646v21.177L93 94.94c0 3.898-3.134 7.058-7 7.058H58c-3.866 0-7-3.16-7-7.058l14-14.118V59.646c-2.233 0-9.233-7.058-7-7.058h28c2.233 0-4.767 7.058-7 7.058zm1.75-10.588c-.967 0-1.75-.79-1.75-1.765 0-.975.783-1.764 1.75-1.764.966 0 1.75.79 1.75 1.764 0 .975-.784 1.765-1.75 1.765zm-7-3.53c-.967 0-1.75-.79-1.75-1.764S72.783 42 73.75 42c.966 0 1.75.79 1.75 1.765 0 .975-.784 1.765-1.75 1.765zM65 49.059c-1.933 0-3.5-1.58-3.5-3.53C61.5 43.58 63.067 42 65 42s3.5 1.58 3.5 3.53c0 1.949-1.567 3.529-3.5 3.529z"/></g></g></svg>