<svg xmlns="http://www.w3.org/2000/svg" width="22" height="22" viewBox="0 0 22 22"><g><g><path fill="#9ac531" d="M21.96 11.173c.012 2.021.04 6.726.04 7.872 0 1.468.046 2.937-1.467 2.937h-9.317c-.078.001-.15.023-.227.023-.078 0-.15-.022-.228-.023h-.54l.067-.048C4.552 21.566 0 16.839 0 11.002 0 4.926 4.92 0 10.989 0c5.82 0 10.534 4.544 10.915 10.275l.05-.041.004.576c0 .066.02.126.02.192 0 .059-.017.113-.018.17zM10.988 2.905c-4.438 0-8.035 3.601-8.035 8.045 0 4.443 3.597 8.044 8.035 8.044 4.437 0 8.035-3.601 8.035-8.044 0-4.444-3.598-8.045-8.035-8.045z"/></g></g></svg>